<svg width="269" height="68" viewBox="0 0 269 68" fill="none" xmlns="http://www.w3.org/2000/svg">
<rect width="269" height="68" rx="14" fill="#191A23"/>
<path d="M82.303 41.28C81.2896 41.28 80.383 41.1 79.583 40.74C78.783 40.38 78.1496 39.84 77.683 39.12C77.2296 38.3867 77.003 37.4733 77.003 36.38V35.96H78.663V36.38C78.663 37.54 79.003 38.4067 79.683 38.98C80.363 39.54 81.2363 39.82 82.303 39.82C83.3963 39.82 84.2296 39.5733 84.803 39.08C85.3763 38.5867 85.663 37.9667 85.663 37.22C85.663 36.7 85.5296 36.2867 85.263 35.98C85.0096 35.6733 84.6496 35.4267 84.183 35.24C83.7163 35.04 83.1696 34.8667 82.543 34.72L81.503 34.46C80.6896 34.2467 79.9696 33.9867 79.343 33.68C78.7163 33.3733 78.223 32.9733 77.863 32.48C77.5163 31.9733 77.343 31.3267 77.343 30.54C77.343 29.7533 77.5363 29.0733 77.923 28.5C78.323 27.9267 78.8763 27.4867 79.583 27.18C80.303 26.8733 81.1296 26.72 82.063 26.72C83.0096 26.72 83.8563 26.8867 84.603 27.22C85.363 27.54 85.9563 28.02 86.383 28.66C86.823 29.2867 87.043 30.08 87.043 31.04V31.88H85.383V31.04C85.383 30.36 85.2363 29.8133 84.943 29.4C84.663 28.9867 84.2696 28.68 83.763 28.48C83.2696 28.28 82.703 28.18 82.063 28.18C81.143 28.18 80.403 28.3867 79.843 28.8C79.283 29.2 79.003 29.7733 79.003 30.52C79.003 31.0133 79.123 31.4133 79.363 31.72C79.603 32.0267 79.943 32.28 80.383 32.48C80.823 32.6667 81.3496 32.8333 81.963 32.98L83.003 33.24C83.8163 33.4133 84.543 33.6533 85.183 33.96C85.8363 34.2533 86.3563 34.66 86.743 35.18C87.1296 35.6867 87.323 36.3533 87.323 37.18C87.323 38.0067 87.1163 38.7267 86.703 39.34C86.2896 39.9533 85.703 40.4333 84.943 40.78C84.1963 41.1133 83.3163 41.28 82.303 41.28ZM94.4486 41.28C93.4619 41.28 92.5953 41.0733 91.8486 40.66C91.1019 40.2333 90.5219 39.64 90.1086 38.88C89.6953 38.12 89.4886 37.24 89.4886 36.24V36C89.4886 34.9867 89.6953 34.1 90.1086 33.34C90.5219 32.58 91.0953 31.9933 91.8286 31.58C92.5619 31.1533 93.4019 30.94 94.3486 30.94C95.2686 30.94 96.0819 31.14 96.7886 31.54C97.4953 31.9267 98.0486 32.4867 98.4486 33.22C98.8486 33.9533 99.0486 34.8133 99.0486 35.8V36.52H91.0686C91.1086 37.5733 91.4486 38.4 92.0886 39C92.7286 39.5867 93.5286 39.88 94.4886 39.88C95.3286 39.88 95.9753 39.6867 96.4286 39.3C96.8819 38.9133 97.2286 38.4533 97.4686 37.92L98.8286 38.58C98.6286 38.9933 98.3486 39.4067 97.9886 39.82C97.6419 40.2333 97.1819 40.58 96.6086 40.86C96.0486 41.14 95.3286 41.28 94.4486 41.28ZM91.0886 35.22H97.4486C97.3953 34.3133 97.0819 33.6067 96.5086 33.1C95.9486 32.5933 95.2286 32.34 94.3486 32.34C93.4553 32.34 92.7219 32.5933 92.1486 33.1C91.5753 33.6067 91.2219 34.3133 91.0886 35.22ZM106.285 41.28C105.298 41.28 104.431 41.0733 103.685 40.66C102.938 40.2333 102.358 39.64 101.945 38.88C101.531 38.12 101.325 37.24 101.325 36.24V36C101.325 34.9867 101.531 34.1 101.945 33.34C102.358 32.58 102.931 31.9933 103.665 31.58C104.398 31.1533 105.238 30.94 106.185 30.94C107.105 30.94 107.918 31.14 108.625 31.54C109.331 31.9267 109.885 32.4867 110.285 33.22C110.685 33.9533 110.885 34.8133 110.885 35.8V36.52H102.905C102.945 37.5733 103.285 38.4 103.925 39C104.565 39.5867 105.365 39.88 106.325 39.88C107.165 39.88 107.811 39.6867 108.265 39.3C108.718 38.9133 109.065 38.4533 109.305 37.92L110.665 38.58C110.465 38.9933 110.185 39.4067 109.825 39.82C109.478 40.2333 109.018 40.58 108.445 40.86C107.885 41.14 107.165 41.28 106.285 41.28ZM102.925 35.22H109.285C109.231 34.3133 108.918 33.6067 108.345 33.1C107.785 32.5933 107.065 32.34 106.185 32.34C105.291 32.34 104.558 32.5933 103.985 33.1C103.411 33.6067 103.058 34.3133 102.925 35.22ZM121.777 41.28C121.097 41.28 120.477 41.16 119.917 40.92C119.357 40.68 118.917 40.3333 118.597 39.88C118.277 39.4267 118.117 38.8733 118.117 38.22C118.117 37.5533 118.277 37.0067 118.597 36.58C118.917 36.14 119.357 35.8133 119.917 35.6C120.477 35.3733 121.104 35.26 121.797 35.26H125.097V34.54C125.097 33.8467 124.891 33.3 124.477 32.9C124.077 32.5 123.477 32.3 122.677 32.3C121.891 32.3 121.277 32.4933 120.837 32.88C120.397 33.2533 120.097 33.76 119.937 34.4L118.457 33.92C118.617 33.3733 118.871 32.88 119.217 32.44C119.564 31.9867 120.024 31.6267 120.597 31.36C121.184 31.08 121.884 30.94 122.697 30.94C123.951 30.94 124.924 31.2667 125.617 31.92C126.311 32.56 126.657 33.4667 126.657 34.64V39.06C126.657 39.46 126.844 39.66 127.217 39.66H128.117V41H126.737C126.297 41 125.944 40.88 125.677 40.64C125.411 40.3867 125.277 40.0533 125.277 39.64V39.54H125.037C124.891 39.7933 124.691 40.06 124.437 40.34C124.197 40.6067 123.864 40.8267 123.437 41C123.011 41.1867 122.457 41.28 121.777 41.28ZM121.957 39.92C122.891 39.92 123.644 39.6467 124.217 39.1C124.804 38.54 125.097 37.76 125.097 36.76V36.54H121.857C121.231 36.54 120.711 36.68 120.297 36.96C119.897 37.2267 119.697 37.6333 119.697 38.18C119.697 38.7267 119.904 39.1533 120.317 39.46C120.744 39.7667 121.291 39.92 121.957 39.92ZM130.281 41V27H131.861V41H130.281ZM135.183 41V27H136.763V41H135.183ZM148.823 41C148.263 41 147.829 40.8467 147.523 40.54C147.229 40.2333 147.083 39.8133 147.083 39.28V32.6H144.143V31.22H147.083V27.74H148.663V31.22H151.863V32.6H148.663V39.04C148.663 39.44 148.856 39.64 149.243 39.64H151.423V41H148.823ZM158.55 41.28C157.563 41.28 156.697 41.0733 155.95 40.66C155.203 40.2333 154.623 39.64 154.21 38.88C153.797 38.12 153.59 37.24 153.59 36.24V36C153.59 34.9867 153.797 34.1 154.21 33.34C154.623 32.58 155.197 31.9933 155.93 31.58C156.663 31.1533 157.503 30.94 158.45 30.94C159.37 30.94 160.183 31.14 160.89 31.54C161.597 31.9267 162.15 32.4867 162.55 33.22C162.95 33.9533 163.15 34.8133 163.15 35.8V36.52H155.17C155.21 37.5733 155.55 38.4 156.19 39C156.83 39.5867 157.63 39.88 158.59 39.88C159.43 39.88 160.077 39.6867 160.53 39.3C160.983 38.9133 161.33 38.4533 161.57 37.92L162.93 38.58C162.73 38.9933 162.45 39.4067 162.09 39.82C161.743 40.2333 161.283 40.58 160.71 40.86C160.15 41.14 159.43 41.28 158.55 41.28ZM155.19 35.22H161.55C161.497 34.3133 161.183 33.6067 160.61 33.1C160.05 32.5933 159.33 32.34 158.45 32.34C157.557 32.34 156.823 32.5933 156.25 33.1C155.677 33.6067 155.323 34.3133 155.19 35.22ZM168.906 41.28C168.226 41.28 167.606 41.16 167.046 40.92C166.486 40.68 166.046 40.3333 165.726 39.88C165.406 39.4267 165.246 38.8733 165.246 38.22C165.246 37.5533 165.406 37.0067 165.726 36.58C166.046 36.14 166.486 35.8133 167.046 35.6C167.606 35.3733 168.233 35.26 168.926 35.26H172.226V34.54C172.226 33.8467 172.019 33.3 171.606 32.9C171.206 32.5 170.606 32.3 169.806 32.3C169.019 32.3 168.406 32.4933 167.966 32.88C167.526 33.2533 167.226 33.76 167.066 34.4L165.586 33.92C165.746 33.3733 165.999 32.88 166.346 32.44C166.693 31.9867 167.153 31.6267 167.726 31.36C168.313 31.08 169.013 30.94 169.826 30.94C171.079 30.94 172.053 31.2667 172.746 31.92C173.439 32.56 173.786 33.4667 173.786 34.64V39.06C173.786 39.46 173.973 39.66 174.346 39.66H175.246V41H173.866C173.426 41 173.073 40.88 172.806 40.64C172.539 40.3867 172.406 40.0533 172.406 39.64V39.54H172.166C172.019 39.7933 171.819 40.06 171.566 40.34C171.326 40.6067 170.993 40.8267 170.566 41C170.139 41.1867 169.586 41.28 168.906 41.28ZM169.086 39.92C170.019 39.92 170.773 39.6467 171.346 39.1C171.933 38.54 172.226 37.76 172.226 36.76V36.54H168.986C168.359 36.54 167.839 36.68 167.426 36.96C167.026 37.2267 166.826 37.6333 166.826 38.18C166.826 38.7267 167.033 39.1533 167.446 39.46C167.873 39.7667 168.419 39.92 169.086 39.92ZM177.41 41V31.22H178.95V32.44H179.23C179.417 32.0933 179.723 31.7733 180.15 31.48C180.577 31.1867 181.177 31.04 181.95 31.04C182.71 31.04 183.323 31.2067 183.79 31.54C184.27 31.8733 184.617 32.28 184.83 32.76H185.11C185.337 32.28 185.677 31.8733 186.13 31.54C186.597 31.2067 187.243 31.04 188.07 31.04C188.723 31.04 189.297 31.1733 189.79 31.44C190.283 31.7067 190.67 32.0933 190.95 32.6C191.243 33.0933 191.39 33.6867 191.39 34.38V41H189.81V34.52C189.81 33.8667 189.617 33.3533 189.23 32.98C188.857 32.5933 188.33 32.4 187.65 32.4C186.93 32.4 186.337 32.6333 185.87 33.1C185.417 33.5667 185.19 34.24 185.19 35.12V41H183.61V34.52C183.61 33.8667 183.417 33.3533 183.03 32.98C182.657 32.5933 182.13 32.4 181.45 32.4C180.73 32.4 180.137 32.6333 179.67 33.1C179.217 33.5667 178.99 34.24 178.99 35.12V41H177.41Z" fill="white"/>
</svg>
