<svg width="557" height="634" viewBox="0 0 557 634" fill="none" xmlns="http://www.w3.org/2000/svg">
<path d="M48.634 21.252C47.722 21.252 46.906 21.09 46.186 20.766C45.466 20.442 44.896 19.956 44.476 19.308C44.068 18.648 43.864 17.826 43.864 16.842V16.464H45.358V16.842C45.358 17.886 45.664 18.666 46.276 19.182C46.888 19.686 47.674 19.938 48.634 19.938C49.618 19.938 50.368 19.716 50.884 19.272C51.4 18.828 51.658 18.27 51.658 17.598C51.658 17.13 51.538 16.758 51.298 16.482C51.07 16.206 50.746 15.984 50.326 15.816C49.906 15.636 49.414 15.48 48.85 15.348L47.914 15.114C47.182 14.922 46.534 14.688 45.97 14.412C45.406 14.136 44.962 13.776 44.638 13.332C44.326 12.876 44.17 12.294 44.17 11.586C44.17 10.878 44.344 10.266 44.692 9.75C45.052 9.234 45.55 8.838 46.186 8.562C46.834 8.286 47.578 8.148 48.418 8.148C49.27 8.148 50.032 8.298 50.704 8.598C51.388 8.886 51.922 9.318 52.306 9.894C52.702 10.458 52.9 11.172 52.9 12.036V12.792H51.406V12.036C51.406 11.424 51.274 10.932 51.01 10.56C50.758 10.188 50.404 9.912 49.948 9.732C49.504 9.552 48.994 9.462 48.418 9.462C47.59 9.462 46.924 9.648 46.42 10.02C45.916 10.38 45.664 10.896 45.664 11.568C45.664 12.012 45.772 12.372 45.988 12.648C46.204 12.924 46.51 13.152 46.906 13.332C47.302 13.5 47.776 13.65 48.328 13.782L49.264 14.016C49.996 14.172 50.65 14.388 51.226 14.664C51.814 14.928 52.282 15.294 52.63 15.762C52.978 16.218 53.152 16.818 53.152 17.562C53.152 18.306 52.966 18.954 52.594 19.506C52.222 20.058 51.694 20.49 51.01 20.802C50.338 21.102 49.546 21.252 48.634 21.252ZM58.2331 21.252C57.6211 21.252 57.0631 21.144 56.5591 20.928C56.0551 20.712 55.6591 20.4 55.3711 19.992C55.0831 19.584 54.9391 19.086 54.9391 18.498C54.9391 17.898 55.0831 17.406 55.3711 17.022C55.6591 16.626 56.0551 16.332 56.5591 16.14C57.0631 15.936 57.6271 15.834 58.2511 15.834H61.2211V15.186C61.2211 14.562 61.0351 14.07 60.6631 13.71C60.3031 13.35 59.7631 13.17 59.0431 13.17C58.3351 13.17 57.7831 13.344 57.3871 13.692C56.9911 14.028 56.7211 14.484 56.5771 15.06L55.2451 14.628C55.3891 14.136 55.6171 13.692 55.9291 13.296C56.2411 12.888 56.6551 12.564 57.1711 12.324C57.6991 12.072 58.3291 11.946 59.0611 11.946C60.1891 11.946 61.0651 12.24 61.6891 12.828C62.3131 13.404 62.6251 14.22 62.6251 15.276V19.254C62.6251 19.614 62.7931 19.794 63.1291 19.794H63.9391V21H62.6971C62.3011 21 61.9831 20.892 61.7431 20.676C61.5031 20.448 61.3831 20.148 61.3831 19.776V19.686H61.1671C61.0351 19.914 60.8551 20.154 60.6271 20.406C60.4111 20.646 60.1111 20.844 59.7271 21C59.3431 21.168 58.8451 21.252 58.2331 21.252ZM58.3951 20.028C59.2351 20.028 59.9131 19.782 60.4291 19.29C60.9571 18.786 61.2211 18.084 61.2211 17.184V16.986H58.3051C57.7411 16.986 57.2731 17.112 56.9011 17.364C56.5411 17.604 56.3611 17.97 56.3611 18.462C56.3611 18.954 56.5471 19.338 56.9191 19.614C57.3031 19.89 57.7951 20.028 58.3951 20.028ZM66.7201 24.6V23.34H71.7601C72.1081 23.34 72.2821 23.16 72.2821 22.8V19.596H72.0301C71.9101 19.848 71.7241 20.1 71.4721 20.352C71.2321 20.592 70.9141 20.79 70.5181 20.946C70.1221 21.09 69.6241 21.162 69.0241 21.162C68.3881 21.162 67.8001 21.024 67.2601 20.748C66.7321 20.472 66.3121 20.064 66.0001 19.524C65.7001 18.984 65.5501 18.324 65.5501 17.544V12.198H66.9721V17.436C66.9721 18.3 67.1881 18.93 67.6201 19.326C68.0641 19.722 68.6581 19.92 69.4021 19.92C70.2421 19.92 70.9321 19.644 71.4721 19.092C72.0121 18.54 72.2821 17.718 72.2821 16.626V12.198H73.7041V23.052C73.7041 23.532 73.5661 23.91 73.2901 24.186C73.0261 24.462 72.6361 24.6 72.1201 24.6H66.7201ZM81.2486 21V8.4H82.7606V13.998H88.6646V8.4H90.1766V21H88.6646V15.366H82.7606V21H81.2486ZM93.1151 21V12.198H94.5371V21H93.1151ZM93.8351 10.83C93.5231 10.83 93.2591 10.728 93.0431 10.524C92.8391 10.32 92.7371 10.062 92.7371 9.75C92.7371 9.426 92.8391 9.162 93.0431 8.958C93.2591 8.754 93.5231 8.652 93.8351 8.652C94.1471 8.652 94.4051 8.754 94.6091 8.958C94.8131 9.162 94.9151 9.426 94.9151 9.75C94.9151 10.062 94.8131 10.32 94.6091 10.524C94.4051 10.728 94.1471 10.83 93.8351 10.83Z" fill="black"/>
<rect x="0.5" y="0.5" width="29" height="29" rx="14.5" fill="white" stroke="black"/>
<circle cx="15" cy="15" r="8" fill="#B9FF66"/>
<rect x="131.5" y="0.5" width="29" height="29" rx="14.5" fill="white" stroke="black"/>
<path d="M179.832 21.252C178.896 21.252 178.068 21.06 177.348 20.676C176.64 20.28 176.082 19.704 175.674 18.948C175.278 18.192 175.08 17.256 175.08 16.14V13.26C175.08 11.592 175.524 10.326 176.412 9.462C177.3 8.586 178.494 8.148 179.994 8.148C181.482 8.148 182.616 8.556 183.396 9.372C184.176 10.188 184.566 11.28 184.566 12.648V12.738H183.072V12.612C183.072 12.012 182.964 11.478 182.748 11.01C182.532 10.542 182.196 10.176 181.74 9.912C181.284 9.636 180.702 9.498 179.994 9.498C178.926 9.498 178.092 9.828 177.492 10.488C176.892 11.136 176.592 12.048 176.592 13.224V16.176C176.592 17.352 176.892 18.27 177.492 18.93C178.092 19.578 178.932 19.902 180.012 19.902C181.068 19.902 181.842 19.602 182.334 19.002C182.838 18.402 183.09 17.604 183.09 16.608V16.302H179.274V15.006H184.566V21H183.198V19.632H182.946C182.814 19.896 182.628 20.154 182.388 20.406C182.148 20.658 181.824 20.862 181.416 21.018C181.008 21.174 180.48 21.252 179.832 21.252ZM191.409 21.252C190.521 21.252 189.741 21.066 189.069 20.694C188.397 20.31 187.875 19.776 187.503 19.092C187.131 18.408 186.945 17.616 186.945 16.716V16.5C186.945 15.588 187.131 14.79 187.503 14.106C187.875 13.422 188.391 12.894 189.051 12.522C189.711 12.138 190.467 11.946 191.319 11.946C192.147 11.946 192.879 12.126 193.515 12.486C194.151 12.834 194.649 13.338 195.009 13.998C195.369 14.658 195.549 15.432 195.549 16.32V16.968H188.367C188.403 17.916 188.709 18.66 189.285 19.2C189.861 19.728 190.581 19.992 191.445 19.992C192.201 19.992 192.783 19.818 193.191 19.47C193.599 19.122 193.911 18.708 194.127 18.228L195.351 18.822C195.171 19.194 194.919 19.566 194.595 19.938C194.283 20.31 193.869 20.622 193.353 20.874C192.849 21.126 192.201 21.252 191.409 21.252ZM188.385 15.798H194.109C194.061 14.982 193.779 14.346 193.263 13.89C192.759 13.434 192.111 13.206 191.319 13.206C190.515 13.206 189.855 13.434 189.339 13.89C188.823 14.346 188.505 14.982 188.385 15.798ZM200.918 21C200.414 21 200.024 20.862 199.748 20.586C199.484 20.31 199.352 19.932 199.352 19.452V13.44H196.706V12.198H199.352V9.066H200.774V12.198H203.654V13.44H200.774V19.236C200.774 19.596 200.948 19.776 201.296 19.776H203.258V21H200.918ZM213.28 21.252C212.668 21.252 212.11 21.144 211.606 20.928C211.102 20.712 210.706 20.4 210.418 19.992C210.13 19.584 209.986 19.086 209.986 18.498C209.986 17.898 210.13 17.406 210.418 17.022C210.706 16.626 211.102 16.332 211.606 16.14C212.11 15.936 212.674 15.834 213.298 15.834H216.268V15.186C216.268 14.562 216.082 14.07 215.71 13.71C215.35 13.35 214.81 13.17 214.09 13.17C213.382 13.17 212.83 13.344 212.434 13.692C212.038 14.028 211.768 14.484 211.624 15.06L210.292 14.628C210.436 14.136 210.664 13.692 210.976 13.296C211.288 12.888 211.702 12.564 212.218 12.324C212.746 12.072 213.376 11.946 214.108 11.946C215.236 11.946 216.112 12.24 216.736 12.828C217.36 13.404 217.672 14.22 217.672 15.276V19.254C217.672 19.614 217.84 19.794 218.176 19.794H218.986V21H217.744C217.348 21 217.03 20.892 216.79 20.676C216.55 20.448 216.43 20.148 216.43 19.776V19.686H216.214C216.082 19.914 215.902 20.154 215.674 20.406C215.458 20.646 215.158 20.844 214.774 21C214.39 21.168 213.892 21.252 213.28 21.252ZM213.442 20.028C214.282 20.028 214.96 19.782 215.476 19.29C216.004 18.786 216.268 18.084 216.268 17.184V16.986H213.352C212.788 16.986 212.32 17.112 211.948 17.364C211.588 17.604 211.408 17.97 211.408 18.462C211.408 18.954 211.594 19.338 211.966 19.614C212.35 19.89 212.842 20.028 213.442 20.028ZM230.075 21.252C228.575 21.252 227.375 20.82 226.475 19.956C225.587 19.08 225.143 17.808 225.143 16.14V13.26C225.143 11.592 225.587 10.326 226.475 9.462C227.375 8.586 228.575 8.148 230.075 8.148C231.587 8.148 232.787 8.586 233.675 9.462C234.575 10.326 235.025 11.592 235.025 13.26V16.14C235.025 17.808 234.575 19.08 233.675 19.956C232.787 20.82 231.587 21.252 230.075 21.252ZM230.075 19.902C231.167 19.902 232.013 19.578 232.613 18.93C233.213 18.27 233.513 17.358 233.513 16.194V13.206C233.513 12.042 233.213 11.136 232.613 10.488C232.013 9.828 231.167 9.498 230.075 9.498C228.995 9.498 228.155 9.828 227.555 10.488C226.955 11.136 226.655 12.042 226.655 13.206V16.194C226.655 17.358 226.955 18.27 227.555 18.93C228.155 19.578 228.995 19.902 230.075 19.902ZM230.813 23.916C230.369 23.916 230.009 23.778 229.733 23.502C229.469 23.238 229.337 22.872 229.337 22.404V21H230.813V22.134C230.813 22.494 230.981 22.674 231.317 22.674H232.505V23.916H230.813ZM240.964 21.162C240.328 21.162 239.74 21.024 239.2 20.748C238.672 20.472 238.252 20.064 237.94 19.524C237.64 18.972 237.49 18.306 237.49 17.526V12.198H238.912V17.418C238.912 18.294 239.128 18.93 239.56 19.326C240.004 19.722 240.598 19.92 241.342 19.92C242.182 19.92 242.872 19.644 243.412 19.092C243.952 18.54 244.222 17.718 244.222 16.626V12.198H245.644V21H244.258V19.506H244.006C243.814 19.926 243.484 20.31 243.016 20.658C242.548 20.994 241.864 21.162 240.964 21.162ZM252.687 21.252C251.799 21.252 251.013 21.066 250.329 20.694C249.657 20.322 249.129 19.8 248.745 19.128C248.373 18.444 248.187 17.64 248.187 16.716V16.482C248.187 15.57 248.373 14.772 248.745 14.088C249.129 13.404 249.657 12.876 250.329 12.504C251.013 12.132 251.799 11.946 252.687 11.946C253.575 11.946 254.355 12.132 255.027 12.504C255.711 12.876 256.239 13.404 256.611 14.088C256.995 14.772 257.187 15.57 257.187 16.482V16.716C257.187 17.64 256.995 18.444 256.611 19.128C256.239 19.8 255.711 20.322 255.027 20.694C254.355 21.066 253.575 21.252 252.687 21.252ZM252.687 19.974C253.623 19.974 254.367 19.68 254.919 19.092C255.483 18.492 255.765 17.688 255.765 16.68V16.518C255.765 15.51 255.483 14.712 254.919 14.124C254.367 13.524 253.623 13.224 252.687 13.224C251.763 13.224 251.019 13.524 250.455 14.124C249.891 14.712 249.609 15.51 249.609 16.518V16.68C249.609 17.688 249.891 18.492 250.455 19.092C251.019 19.68 251.763 19.974 252.687 19.974ZM262.634 21C262.13 21 261.74 20.862 261.464 20.586C261.2 20.31 261.068 19.932 261.068 19.452V13.44H258.422V12.198H261.068V9.066H262.49V12.198H265.37V13.44H262.49V19.236C262.49 19.596 262.664 19.776 263.012 19.776H264.974V21H262.634ZM271.389 21.252C270.501 21.252 269.721 21.066 269.049 20.694C268.377 20.31 267.855 19.776 267.483 19.092C267.111 18.408 266.925 17.616 266.925 16.716V16.5C266.925 15.588 267.111 14.79 267.483 14.106C267.855 13.422 268.371 12.894 269.031 12.522C269.691 12.138 270.447 11.946 271.299 11.946C272.127 11.946 272.859 12.126 273.495 12.486C274.131 12.834 274.629 13.338 274.989 13.998C275.349 14.658 275.529 15.432 275.529 16.32V16.968H268.347C268.383 17.916 268.689 18.66 269.265 19.2C269.841 19.728 270.561 19.992 271.425 19.992C272.181 19.992 272.763 19.818 273.171 19.47C273.579 19.122 273.891 18.708 274.107 18.228L275.331 18.822C275.151 19.194 274.899 19.566 274.575 19.938C274.263 20.31 273.849 20.622 273.333 20.874C272.829 21.126 272.181 21.252 271.389 21.252ZM268.365 15.798H274.089C274.041 14.982 273.759 14.346 273.243 13.89C272.739 13.434 272.091 13.206 271.299 13.206C270.495 13.206 269.835 13.434 269.319 13.89C268.803 14.346 268.485 14.982 268.365 15.798Z" fill="black"/>
<path d="M2.28 89V77.8H4.888L8.792 88.152H9V77.8H10.328V89H7.72L3.832 78.632H3.608V89H2.28ZM15.353 89.224C14.809 89.224 14.313 89.128 13.865 88.936C13.417 88.744 13.065 88.4667 12.809 88.104C12.553 87.7413 12.425 87.2987 12.425 86.776C12.425 86.2427 12.553 85.8053 12.809 85.464C13.065 85.112 13.417 84.8507 13.865 84.68C14.313 84.4987 14.8143 84.408 15.369 84.408H18.009V83.832C18.009 83.2773 17.8437 82.84 17.513 82.52C17.193 82.2 16.713 82.04 16.073 82.04C15.4437 82.04 14.953 82.1947 14.601 82.504C14.249 82.8027 14.009 83.208 13.881 83.72L12.697 83.336C12.825 82.8987 13.0277 82.504 13.305 82.152C13.5823 81.7893 13.9503 81.5013 14.409 81.288C14.8783 81.064 15.4383 80.952 16.089 80.952C17.0917 80.952 17.8703 81.2133 18.425 81.736C18.9797 82.248 19.257 82.9733 19.257 83.912V87.448C19.257 87.768 19.4063 87.928 19.705 87.928H20.425V89H19.321C18.969 89 18.6863 88.904 18.473 88.712C18.2597 88.5093 18.153 88.2427 18.153 87.912V87.832H17.961C17.8437 88.0347 17.6837 88.248 17.481 88.472C17.289 88.6853 17.0223 88.8613 16.681 89C16.3397 89.1493 15.897 89.224 15.353 89.224ZM15.497 88.136C16.2437 88.136 16.8463 87.9173 17.305 87.48C17.7743 87.032 18.009 86.408 18.009 85.608V85.432H15.417C14.9157 85.432 14.4997 85.544 14.169 85.768C13.849 85.9813 13.689 86.3067 13.689 86.744C13.689 87.1813 13.8543 87.5227 14.185 87.768C14.5263 88.0133 14.9637 88.136 15.497 88.136ZM22.1561 89V81.176H23.3881V82.152H23.6121C23.7615 81.8747 24.0068 81.6187 24.3481 81.384C24.6895 81.1493 25.1695 81.032 25.7881 81.032C26.3961 81.032 26.8868 81.1653 27.2601 81.432C27.6441 81.6987 27.9215 82.024 28.0921 82.408H28.3161C28.4975 82.024 28.7695 81.6987 29.1321 81.432C29.5055 81.1653 30.0228 81.032 30.6841 81.032C31.2068 81.032 31.6655 81.1387 32.0601 81.352C32.4548 81.5653 32.7641 81.8747 32.9881 82.28C33.2228 82.6747 33.3401 83.1493 33.3401 83.704V89H32.0761V83.816C32.0761 83.2933 31.9215 82.8827 31.6121 82.584C31.3135 82.2747 30.8921 82.12 30.3481 82.12C29.7721 82.12 29.2975 82.3067 28.9241 82.68C28.5615 83.0533 28.3801 83.592 28.3801 84.296V89H27.1161V83.816C27.1161 83.2933 26.9615 82.8827 26.6521 82.584C26.3535 82.2747 25.9321 82.12 25.3881 82.12C24.8121 82.12 24.3375 82.3067 23.9641 82.68C23.6015 83.0533 23.4201 83.592 23.4201 84.296V89H22.1561ZM39.5058 89.224C38.7164 89.224 38.0231 89.0587 37.4258 88.728C36.8284 88.3867 36.3644 87.912 36.0338 87.304C35.7031 86.696 35.5378 85.992 35.5378 85.192V85C35.5378 84.1893 35.7031 83.48 36.0338 82.872C36.3644 82.264 36.8231 81.7947 37.4098 81.464C37.9964 81.1227 38.6684 80.952 39.4258 80.952C40.1618 80.952 40.8124 81.112 41.3778 81.432C41.9431 81.7413 42.3858 82.1893 42.7058 82.776C43.0258 83.3627 43.1858 84.0507 43.1858 84.84V85.416H36.8018C36.8338 86.2587 37.1058 86.92 37.6178 87.4C38.1298 87.8693 38.7698 88.104 39.5378 88.104C40.2098 88.104 40.7271 87.9493 41.0898 87.64C41.4524 87.3307 41.7298 86.9627 41.9218 86.536L43.0098 87.064C42.8498 87.3947 42.6258 87.7253 42.3378 88.056C42.0604 88.3867 41.6924 88.664 41.2338 88.888C40.7858 89.112 40.2098 89.224 39.5058 89.224ZM36.8178 84.376H41.9058C41.8631 83.6507 41.6124 83.0853 41.1538 82.68C40.7058 82.2747 40.1298 82.072 39.4258 82.072C38.7111 82.072 38.1244 82.2747 37.6658 82.68C37.2071 83.0853 36.9244 83.6507 36.8178 84.376Z" fill="black"/>
<rect x="1.5" y="102.5" width="555" height="58" rx="13.5" fill="white"/>
<rect x="1.5" y="102.5" width="555" height="58" rx="13.5" stroke="black"/>
<path d="M32.44 138V125.4H35.374L39.766 137.046H40V125.4H41.494V138H38.56L34.186 126.336H33.934V138H32.44ZM47.1471 138.252C46.5351 138.252 45.9771 138.144 45.4731 137.928C44.9691 137.712 44.5731 137.4 44.2851 136.992C43.9971 136.584 43.8531 136.086 43.8531 135.498C43.8531 134.898 43.9971 134.406 44.2851 134.022C44.5731 133.626 44.9691 133.332 45.4731 133.14C45.9771 132.936 46.5411 132.834 47.1651 132.834H50.1351V132.186C50.1351 131.562 49.9491 131.07 49.5771 130.71C49.2171 130.35 48.6771 130.17 47.9571 130.17C47.2491 130.17 46.6971 130.344 46.3011 130.692C45.9051 131.028 45.6351 131.484 45.4911 132.06L44.1591 131.628C44.3031 131.136 44.5311 130.692 44.8431 130.296C45.1551 129.888 45.5691 129.564 46.0851 129.324C46.6131 129.072 47.2431 128.946 47.9751 128.946C49.1031 128.946 49.9791 129.24 50.6031 129.828C51.2271 130.404 51.5391 131.22 51.5391 132.276V136.254C51.5391 136.614 51.7071 136.794 52.0431 136.794H52.8531V138H51.6111C51.2151 138 50.8971 137.892 50.6571 137.676C50.4171 137.448 50.2971 137.148 50.2971 136.776V136.686H50.0811C49.9491 136.914 49.7691 137.154 49.5411 137.406C49.3251 137.646 49.0251 137.844 48.6411 138C48.2571 138.168 47.7591 138.252 47.1471 138.252ZM47.3091 137.028C48.1491 137.028 48.8271 136.782 49.3431 136.29C49.8711 135.786 50.1351 135.084 50.1351 134.184V133.986H47.2191C46.6551 133.986 46.1871 134.112 45.8151 134.364C45.4551 134.604 45.2751 134.97 45.2751 135.462C45.2751 135.954 45.4611 136.338 45.8331 136.614C46.2171 136.89 46.7091 137.028 47.3091 137.028ZM54.8006 138V129.198H56.1866V130.296H56.4386C56.6066 129.984 56.8826 129.696 57.2666 129.432C57.6506 129.168 58.1906 129.036 58.8866 129.036C59.5706 129.036 60.1226 129.186 60.5426 129.486C60.9746 129.786 61.2866 130.152 61.4786 130.584H61.7306C61.9346 130.152 62.2406 129.786 62.6486 129.486C63.0686 129.186 63.6506 129.036 64.3946 129.036C64.9826 129.036 65.4986 129.156 65.9426 129.396C66.3866 129.636 66.7346 129.984 66.9866 130.44C67.2506 130.884 67.3826 131.418 67.3826 132.042V138H65.9606V132.168C65.9606 131.58 65.7866 131.118 65.4386 130.782C65.1026 130.434 64.6286 130.26 64.0166 130.26C63.3686 130.26 62.8346 130.47 62.4146 130.89C62.0066 131.31 61.8026 131.916 61.8026 132.708V138H60.3806V132.168C60.3806 131.58 60.2066 131.118 59.8586 130.782C59.5226 130.434 59.0486 130.26 58.4366 130.26C57.7886 130.26 57.2546 130.47 56.8346 130.89C56.4266 131.31 56.2226 131.916 56.2226 132.708V138H54.8006ZM74.319 138.252C73.431 138.252 72.651 138.066 71.979 137.694C71.307 137.31 70.785 136.776 70.413 136.092C70.041 135.408 69.855 134.616 69.855 133.716V133.5C69.855 132.588 70.041 131.79 70.413 131.106C70.785 130.422 71.301 129.894 71.961 129.522C72.621 129.138 73.377 128.946 74.229 128.946C75.057 128.946 75.789 129.126 76.425 129.486C77.061 129.834 77.559 130.338 77.919 130.998C78.279 131.658 78.459 132.432 78.459 133.32V133.968H71.277C71.313 134.916 71.619 135.66 72.195 136.2C72.771 136.728 73.491 136.992 74.355 136.992C75.111 136.992 75.693 136.818 76.101 136.47C76.509 136.122 76.821 135.708 77.037 135.228L78.261 135.822C78.081 136.194 77.829 136.566 77.505 136.938C77.193 137.31 76.779 137.622 76.263 137.874C75.759 138.126 75.111 138.252 74.319 138.252ZM71.295 132.798H77.019C76.971 131.982 76.689 131.346 76.173 130.89C75.669 130.434 75.021 130.206 74.229 130.206C73.425 130.206 72.765 130.434 72.249 130.89C71.733 131.346 71.415 131.982 71.295 132.798Z" fill="#898989"/>
<path d="M2.28 206V194.8H9.176V196.016H3.624V199.76H8.728V200.976H3.624V204.784H9.256V206H2.28ZM11.3436 206V198.176H12.5756V199.152H12.7996C12.949 198.875 13.1943 198.619 13.5356 198.384C13.877 198.149 14.357 198.032 14.9756 198.032C15.5836 198.032 16.0743 198.165 16.4476 198.432C16.8316 198.699 17.109 199.024 17.2796 199.408H17.5036C17.685 199.024 17.957 198.699 18.3196 198.432C18.693 198.165 19.2103 198.032 19.8716 198.032C20.3943 198.032 20.853 198.139 21.2476 198.352C21.6423 198.565 21.9516 198.875 22.1756 199.28C22.4103 199.675 22.5276 200.149 22.5276 200.704V206H21.2636V200.816C21.2636 200.293 21.109 199.883 20.7996 199.584C20.501 199.275 20.0796 199.12 19.5356 199.12C18.9596 199.12 18.485 199.307 18.1116 199.68C17.749 200.053 17.5676 200.592 17.5676 201.296V206H16.3036V200.816C16.3036 200.293 16.149 199.883 15.8396 199.584C15.541 199.275 15.1196 199.12 14.5756 199.12C13.9996 199.12 13.525 199.307 13.1516 199.68C12.789 200.053 12.6076 200.592 12.6076 201.296V206H11.3436ZM27.5093 206.224C26.9653 206.224 26.4693 206.128 26.0213 205.936C25.5733 205.744 25.2213 205.467 24.9653 205.104C24.7093 204.741 24.5813 204.299 24.5813 203.776C24.5813 203.243 24.7093 202.805 24.9653 202.464C25.2213 202.112 25.5733 201.851 26.0213 201.68C26.4693 201.499 26.9706 201.408 27.5253 201.408H30.1653V200.832C30.1653 200.277 29.9999 199.84 29.6693 199.52C29.3493 199.2 28.8693 199.04 28.2293 199.04C27.5999 199.04 27.1093 199.195 26.7573 199.504C26.4053 199.803 26.1653 200.208 26.0373 200.72L24.8533 200.336C24.9813 199.899 25.1839 199.504 25.4613 199.152C25.7386 198.789 26.1066 198.501 26.5653 198.288C27.0346 198.064 27.5946 197.952 28.2453 197.952C29.2479 197.952 30.0266 198.213 30.5813 198.736C31.1359 199.248 31.4133 199.973 31.4133 200.912V204.448C31.4133 204.768 31.5626 204.928 31.8612 204.928H32.5813V206H31.4773C31.1253 206 30.8426 205.904 30.6293 205.712C30.4159 205.509 30.3093 205.243 30.3093 204.912V204.832H30.1173C29.9999 205.035 29.8399 205.248 29.6373 205.472C29.4453 205.685 29.1786 205.861 28.8373 206C28.4959 206.149 28.0533 206.224 27.5093 206.224ZM27.6533 205.136C28.3999 205.136 29.0026 204.917 29.4613 204.48C29.9306 204.032 30.1653 203.408 30.1653 202.608V202.432H27.5733C27.0719 202.432 26.6559 202.544 26.3253 202.768C26.0053 202.981 25.8453 203.307 25.8453 203.744C25.8453 204.181 26.0106 204.523 26.3413 204.768C26.6826 205.013 27.1199 205.136 27.6533 205.136ZM34.3124 206V198.176H35.5764V206H34.3124ZM34.9524 196.96C34.675 196.96 34.4404 196.869 34.2484 196.688C34.067 196.507 33.9764 196.277 33.9764 196C33.9764 195.712 34.067 195.477 34.2484 195.296C34.4404 195.115 34.675 195.024 34.9524 195.024C35.2297 195.024 35.459 195.115 35.6404 195.296C35.8217 195.477 35.9124 195.712 35.9124 196C35.9124 196.277 35.8217 196.507 35.6404 196.688C35.459 196.869 35.2297 196.96 34.9524 196.96ZM38.2343 206V194.8H39.4983V206H38.2343ZM41.5801 198.64V197.776H42.9401L44.0441 197.92L44.1241 197.744L43.2281 197.072L42.2681 196.096L42.8761 195.504L43.8361 196.464L44.5241 197.344L44.7001 197.264L44.5561 196.16V194.8H45.4201V196.16L45.2761 197.264L45.4521 197.344L46.1401 196.464L47.1001 195.504L47.7081 196.096L46.7481 197.072L45.8521 197.744L45.9321 197.92L47.0361 197.776H48.3961V198.64H47.0361L45.9321 198.512L45.8521 198.672L46.7481 199.36L47.7081 200.32L47.1001 200.928L46.1401 199.968L45.4521 199.072L45.2761 199.152L45.4201 200.256V201.616H44.5561V200.256L44.7001 199.152L44.5241 199.072L43.8361 199.968L42.8761 200.928L42.2681 200.32L43.2281 199.36L44.1241 198.672L44.0441 198.512L42.9401 198.64H41.5801Z" fill="black"/>
<rect x="1.5" y="219.5" width="555" height="58" rx="13.5" fill="white"/>
<rect x="1.5" y="219.5" width="555" height="58" rx="13.5" stroke="black"/>
<path d="M32.44 255V242.4H40.198V243.768H33.952V247.98H39.694V249.348H33.952V253.632H40.288V255H32.44ZM42.6366 255V246.198H44.0226V247.296H44.2746C44.4426 246.984 44.7186 246.696 45.1026 246.432C45.4866 246.168 46.0266 246.036 46.7226 246.036C47.4066 246.036 47.9586 246.186 48.3786 246.486C48.8106 246.786 49.1226 247.152 49.3146 247.584H49.5666C49.7706 247.152 50.0766 246.786 50.4846 246.486C50.9046 246.186 51.4866 246.036 52.2306 246.036C52.8186 246.036 53.3346 246.156 53.7786 246.396C54.2226 246.636 54.5706 246.984 54.8226 247.44C55.0866 247.884 55.2186 248.418 55.2186 249.042V255H53.7966V249.168C53.7966 248.58 53.6226 248.118 53.2746 247.782C52.9386 247.434 52.4646 247.26 51.8526 247.26C51.2046 247.26 50.6706 247.47 50.2506 247.89C49.8426 248.31 49.6386 248.916 49.6386 249.708V255H48.2166V249.168C48.2166 248.58 48.0426 248.118 47.6946 247.782C47.3586 247.434 46.8846 247.26 46.2726 247.26C45.6246 247.26 45.0906 247.47 44.6706 247.89C44.2626 248.31 44.0586 248.916 44.0586 249.708V255H42.6366ZM60.8229 255.252C60.2109 255.252 59.6529 255.144 59.1489 254.928C58.6449 254.712 58.2489 254.4 57.9609 253.992C57.6729 253.584 57.5289 253.086 57.5289 252.498C57.5289 251.898 57.6729 251.406 57.9609 251.022C58.2489 250.626 58.6449 250.332 59.1489 250.14C59.6529 249.936 60.2169 249.834 60.8409 249.834H63.8109V249.186C63.8109 248.562 63.6249 248.07 63.2529 247.71C62.8929 247.35 62.3529 247.17 61.6329 247.17C60.9249 247.17 60.3729 247.344 59.9769 247.692C59.5809 248.028 59.3109 248.484 59.1669 249.06L57.8349 248.628C57.9789 248.136 58.2069 247.692 58.5189 247.296C58.8309 246.888 59.2449 246.564 59.7609 246.324C60.2889 246.072 60.9189 245.946 61.6509 245.946C62.7789 245.946 63.6549 246.24 64.2789 246.828C64.9029 247.404 65.2149 248.22 65.2149 249.276V253.254C65.2149 253.614 65.3829 253.794 65.7189 253.794H66.5289V255H65.2869C64.8909 255 64.5729 254.892 64.3329 254.676C64.0929 254.448 63.9729 254.148 63.9729 253.776V253.686H63.7569C63.6249 253.914 63.4449 254.154 63.2169 254.406C63.0009 254.646 62.7009 254.844 62.3169 255C61.9329 255.168 61.4349 255.252 60.8229 255.252ZM60.9849 254.028C61.8249 254.028 62.5029 253.782 63.0189 253.29C63.5469 252.786 63.8109 252.084 63.8109 251.184V250.986H60.8949C60.3309 250.986 59.8629 251.112 59.4909 251.364C59.1309 251.604 58.9509 251.97 58.9509 252.462C58.9509 252.954 59.1369 253.338 59.5089 253.614C59.8929 253.89 60.3849 254.028 60.9849 254.028ZM68.4764 255V246.198H69.8984V255H68.4764ZM69.1964 244.83C68.8844 244.83 68.6204 244.728 68.4044 244.524C68.2004 244.32 68.0984 244.062 68.0984 243.75C68.0984 243.426 68.2004 243.162 68.4044 242.958C68.6204 242.754 68.8844 242.652 69.1964 242.652C69.5084 242.652 69.7664 242.754 69.9704 242.958C70.1744 243.162 70.2764 243.426 70.2764 243.75C70.2764 244.062 70.1744 244.32 69.9704 244.524C69.7664 244.728 69.5084 244.83 69.1964 244.83ZM72.8885 255V242.4H74.3105V255H72.8885Z" fill="#898989"/>
<path d="M2.28 323V311.8H4.84L7.816 322.152H8.024L11 311.8H13.56V323H12.264V312.68H12.04L9.08 323H6.76L3.8 312.68H3.576V323H2.28ZM19.7558 323.224C18.9664 323.224 18.2731 323.059 17.6758 322.728C17.0784 322.387 16.6144 321.912 16.2838 321.304C15.9531 320.696 15.7878 319.992 15.7878 319.192V319C15.7878 318.189 15.9531 317.48 16.2838 316.872C16.6144 316.264 17.0731 315.795 17.6598 315.464C18.2464 315.123 18.9184 314.952 19.6758 314.952C20.4118 314.952 21.0624 315.112 21.6278 315.432C22.1931 315.741 22.6358 316.189 22.9558 316.776C23.2758 317.363 23.4358 318.051 23.4358 318.84V319.416H17.0518C17.0838 320.259 17.3558 320.92 17.8678 321.4C18.3798 321.869 19.0198 322.104 19.7878 322.104C20.4598 322.104 20.9771 321.949 21.3398 321.64C21.7024 321.331 21.9798 320.963 22.1718 320.536L23.2598 321.064C23.0998 321.395 22.8758 321.725 22.5878 322.056C22.3104 322.387 21.9424 322.664 21.4838 322.888C21.0358 323.112 20.4598 323.224 19.7558 323.224ZM17.0678 318.376H22.1558C22.1131 317.651 21.8624 317.085 21.4038 316.68C20.9558 316.275 20.3798 316.072 19.6758 316.072C18.9611 316.072 18.3744 316.275 17.9158 316.68C17.4571 317.085 17.1744 317.651 17.0678 318.376ZM28.7925 323.224C27.8218 323.224 27.0005 323 26.3285 322.552C25.6672 322.104 25.2672 321.395 25.1285 320.424L26.3285 320.152C26.4138 320.664 26.5738 321.069 26.8085 321.368C27.0432 321.656 27.3312 321.864 27.6725 321.992C28.0245 322.109 28.3978 322.168 28.7925 322.168C29.3792 322.168 29.8432 322.051 30.1845 321.816C30.5258 321.581 30.6965 321.267 30.6965 320.872C30.6965 320.467 30.5312 320.184 30.2005 320.024C29.8805 319.853 29.4378 319.715 28.8725 319.608L28.2165 319.496C27.7152 319.411 27.2565 319.277 26.8405 319.096C26.4245 318.915 26.0938 318.669 25.8485 318.36C25.6032 318.051 25.4805 317.661 25.4805 317.192C25.4805 316.488 25.7525 315.939 26.2965 315.544C26.8405 315.149 27.5605 314.952 28.4565 314.952C29.3418 314.952 30.0565 315.155 30.6005 315.56C31.1552 315.955 31.5125 316.515 31.6725 317.24L30.4885 317.544C30.3925 316.979 30.1632 316.584 29.8005 316.36C29.4378 316.125 28.9898 316.008 28.4565 316.008C27.9232 316.008 27.5018 316.109 27.1925 316.312C26.8832 316.504 26.7285 316.792 26.7285 317.176C26.7285 317.549 26.8725 317.827 27.1605 318.008C27.4592 318.179 27.8538 318.307 28.3445 318.392L29.0005 318.504C29.5552 318.6 30.0512 318.733 30.4885 318.904C30.9365 319.064 31.2885 319.299 31.5445 319.608C31.8112 319.917 31.9445 320.323 31.9445 320.824C31.9445 321.592 31.6565 322.184 31.0805 322.6C30.5152 323.016 29.7525 323.224 28.7925 323.224ZM37.23 323.224C36.2593 323.224 35.438 323 34.766 322.552C34.1047 322.104 33.7047 321.395 33.566 320.424L34.766 320.152C34.8513 320.664 35.0113 321.069 35.246 321.368C35.4807 321.656 35.7687 321.864 36.11 321.992C36.462 322.109 36.8353 322.168 37.23 322.168C37.8167 322.168 38.2807 322.051 38.622 321.816C38.9633 321.581 39.134 321.267 39.134 320.872C39.134 320.467 38.9687 320.184 38.638 320.024C38.318 319.853 37.8753 319.715 37.31 319.608L36.654 319.496C36.1527 319.411 35.694 319.277 35.278 319.096C34.862 318.915 34.5313 318.669 34.286 318.36C34.0407 318.051 33.918 317.661 33.918 317.192C33.918 316.488 34.19 315.939 34.734 315.544C35.278 315.149 35.998 314.952 36.894 314.952C37.7793 314.952 38.494 315.155 39.038 315.56C39.5927 315.955 39.95 316.515 40.11 317.24L38.926 317.544C38.83 316.979 38.6007 316.584 38.238 316.36C37.8753 316.125 37.4273 316.008 36.894 316.008C36.3607 316.008 35.9393 316.109 35.63 316.312C35.3207 316.504 35.166 316.792 35.166 317.176C35.166 317.549 35.31 317.827 35.598 318.008C35.8967 318.179 36.2913 318.307 36.782 318.392L37.438 318.504C37.9927 318.6 38.4887 318.733 38.926 318.904C39.374 319.064 39.726 319.299 39.982 319.608C40.2487 319.917 40.382 320.323 40.382 320.824C40.382 321.592 40.094 322.184 39.518 322.6C38.9527 323.016 38.19 323.224 37.23 323.224ZM44.853 323.224C44.309 323.224 43.813 323.128 43.365 322.936C42.917 322.744 42.565 322.467 42.309 322.104C42.053 321.741 41.925 321.299 41.925 320.776C41.925 320.243 42.053 319.805 42.309 319.464C42.565 319.112 42.917 318.851 43.365 318.68C43.813 318.499 44.3143 318.408 44.869 318.408H47.509V317.832C47.509 317.277 47.3437 316.84 47.013 316.52C46.693 316.2 46.213 316.04 45.573 316.04C44.9437 316.04 44.453 316.195 44.101 316.504C43.749 316.803 43.509 317.208 43.381 317.72L42.197 317.336C42.325 316.899 42.5277 316.504 42.805 316.152C43.0823 315.789 43.4503 315.501 43.909 315.288C44.3783 315.064 44.9383 314.952 45.589 314.952C46.5917 314.952 47.3703 315.213 47.925 315.736C48.4797 316.248 48.757 316.973 48.757 317.912V321.448C48.757 321.768 48.9063 321.928 49.205 321.928H49.925V323H48.821C48.469 323 48.1863 322.904 47.973 322.712C47.7597 322.509 47.653 322.243 47.653 321.912V321.832H47.461C47.3437 322.035 47.1837 322.248 46.981 322.472C46.789 322.685 46.5223 322.861 46.181 323C45.8397 323.149 45.397 323.224 44.853 323.224ZM44.997 322.136C45.7437 322.136 46.3463 321.917 46.805 321.48C47.2743 321.032 47.509 320.408 47.509 319.608V319.432H44.917C44.4157 319.432 43.9997 319.544 43.669 319.768C43.349 319.981 43.189 320.307 43.189 320.744C43.189 321.181 43.3543 321.523 43.685 321.768C44.0263 322.013 44.4637 322.136 44.997 322.136ZM51.0534 319.128V318.904C51.0534 318.083 51.2187 317.379 51.5494 316.792C51.88 316.205 52.328 315.752 52.8934 315.432C53.4587 315.112 54.0774 314.952 54.7494 314.952C55.5707 314.952 56.2 315.112 56.6374 315.432C57.0854 315.741 57.416 316.088 57.6294 316.472H57.8534V315.176H59.0534V324.824C59.0534 325.251 58.936 325.587 58.7014 325.832C58.4667 326.077 58.1254 326.2 57.6774 326.2H52.3654V325.08H57.3414C57.6614 325.08 57.8214 324.92 57.8214 324.6V321.624H57.5974C57.4694 321.859 57.288 322.088 57.0534 322.312C56.8187 322.536 56.5147 322.723 56.1414 322.872C55.768 323.011 55.304 323.08 54.7494 323.08C54.0774 323.08 53.4587 322.92 52.8934 322.6C52.328 322.28 51.88 321.827 51.5494 321.24C51.2187 320.643 51.0534 319.939 51.0534 319.128ZM55.0854 321.96C55.896 321.96 56.552 321.704 57.0534 321.192C57.5654 320.68 57.8214 319.976 57.8214 319.08V318.952C57.8214 318.045 57.5654 317.341 57.0534 316.84C56.552 316.328 55.896 316.072 55.0854 316.072C54.2854 316.072 53.624 316.328 53.1014 316.84C52.5894 317.341 52.3334 318.045 52.3334 318.952V319.08C52.3334 319.976 52.5894 320.68 53.1014 321.192C53.624 321.704 54.2854 321.96 55.0854 321.96ZM65.287 323.224C64.4977 323.224 63.8043 323.059 63.207 322.728C62.6097 322.387 62.1457 321.912 61.815 321.304C61.4843 320.696 61.319 319.992 61.319 319.192V319C61.319 318.189 61.4843 317.48 61.815 316.872C62.1457 316.264 62.6043 315.795 63.191 315.464C63.7777 315.123 64.4497 314.952 65.207 314.952C65.943 314.952 66.5937 315.112 67.159 315.432C67.7243 315.741 68.167 316.189 68.487 316.776C68.807 317.363 68.967 318.051 68.967 318.84V319.416H62.583C62.615 320.259 62.887 320.92 63.399 321.4C63.911 321.869 64.551 322.104 65.319 322.104C65.991 322.104 66.5083 321.949 66.871 321.64C67.2337 321.331 67.511 320.963 67.703 320.536L68.791 321.064C68.631 321.395 68.407 321.725 68.119 322.056C67.8417 322.387 67.4737 322.664 67.015 322.888C66.567 323.112 65.991 323.224 65.287 323.224ZM62.599 318.376H67.687C67.6443 317.651 67.3937 317.085 66.935 316.68C66.487 316.275 65.911 316.072 65.207 316.072C64.4923 316.072 63.9057 316.275 63.447 316.68C62.9883 317.085 62.7057 317.651 62.599 318.376ZM70.5958 315.64V314.776H71.9557L73.0598 314.92L73.1398 314.744L72.2438 314.072L71.2838 313.096L71.8918 312.504L72.8518 313.464L73.5398 314.344L73.7158 314.264L73.5718 313.16V311.8H74.4358V313.16L74.2918 314.264L74.4678 314.344L75.1558 313.464L76.1158 312.504L76.7238 313.096L75.7638 314.072L74.8678 314.744L74.9478 314.92L76.0518 314.776H77.4118V315.64H76.0518L74.9478 315.512L74.8678 315.672L75.7638 316.36L76.7238 317.32L76.1158 317.928L75.1558 316.968L74.4678 316.072L74.2918 316.152L74.4358 317.256V318.616H73.5718V317.256L73.7158 316.152L73.5398 316.072L72.8518 316.968L71.8918 317.928L71.2838 317.32L72.2438 316.36L73.1398 315.672L73.0598 315.512L71.9557 315.64H70.5958Z" fill="black"/>
<rect x="1.5" y="336.5" width="555" height="189" rx="13.5" fill="white"/>
<rect x="1.5" y="336.5" width="555" height="189" rx="13.5" stroke="black"/>
<path d="M32.44 372V359.4H35.32L38.668 371.046H38.902L42.25 359.4H45.13V372H43.672V360.39H43.42L40.09 372H37.48L34.15 360.39H33.898V372H32.44ZM52.1002 372.252C51.2122 372.252 50.4322 372.066 49.7602 371.694C49.0882 371.31 48.5662 370.776 48.1942 370.092C47.8222 369.408 47.6362 368.616 47.6362 367.716V367.5C47.6362 366.588 47.8222 365.79 48.1942 365.106C48.5662 364.422 49.0822 363.894 49.7422 363.522C50.4022 363.138 51.1582 362.946 52.0102 362.946C52.8382 362.946 53.5702 363.126 54.2062 363.486C54.8422 363.834 55.3402 364.338 55.7002 364.998C56.0602 365.658 56.2402 366.432 56.2402 367.32V367.968H49.0582C49.0942 368.916 49.4002 369.66 49.9762 370.2C50.5522 370.728 51.2722 370.992 52.1362 370.992C52.8922 370.992 53.4742 370.818 53.8822 370.47C54.2902 370.122 54.6022 369.708 54.8182 369.228L56.0422 369.822C55.8622 370.194 55.6102 370.566 55.2862 370.938C54.9742 371.31 54.5602 371.622 54.0442 371.874C53.5402 372.126 52.8922 372.252 52.1002 372.252ZM49.0762 366.798H54.8002C54.7522 365.982 54.4702 365.346 53.9542 364.89C53.4502 364.434 52.8022 364.206 52.0102 364.206C51.2062 364.206 50.5462 364.434 50.0302 364.89C49.5142 365.346 49.1962 365.982 49.0762 366.798ZM62.2666 372.252C61.1746 372.252 60.2506 372 59.4946 371.496C58.7506 370.992 58.3006 370.194 58.1446 369.102L59.4946 368.796C59.5906 369.372 59.7706 369.828 60.0346 370.164C60.2986 370.488 60.6226 370.722 61.0066 370.866C61.4026 370.998 61.8226 371.064 62.2666 371.064C62.9266 371.064 63.4486 370.932 63.8326 370.668C64.2166 370.404 64.4086 370.05 64.4086 369.606C64.4086 369.15 64.2226 368.832 63.8506 368.652C63.4906 368.46 62.9926 368.304 62.3566 368.184L61.6186 368.058C61.0546 367.962 60.5386 367.812 60.0706 367.608C59.6026 367.404 59.2306 367.128 58.9546 366.78C58.6786 366.432 58.5406 365.994 58.5406 365.466C58.5406 364.674 58.8466 364.056 59.4586 363.612C60.0706 363.168 60.8806 362.946 61.8886 362.946C62.8846 362.946 63.6886 363.174 64.3006 363.63C64.9246 364.074 65.3266 364.704 65.5066 365.52L64.1746 365.862C64.0666 365.226 63.8086 364.782 63.4006 364.53C62.9926 364.266 62.4886 364.134 61.8886 364.134C61.2886 364.134 60.8146 364.248 60.4666 364.476C60.1186 364.692 59.9446 365.016 59.9446 365.448C59.9446 365.868 60.1066 366.18 60.4306 366.384C60.7666 366.576 61.2106 366.72 61.7626 366.816L62.5006 366.942C63.1246 367.05 63.6826 367.2 64.1746 367.392C64.6786 367.572 65.0746 367.836 65.3626 368.184C65.6626 368.532 65.8126 368.988 65.8126 369.552C65.8126 370.416 65.4886 371.082 64.8406 371.55C64.2046 372.018 63.3466 372.252 62.2666 372.252ZM71.7588 372.252C70.6668 372.252 69.7428 372 68.9868 371.496C68.2428 370.992 67.7928 370.194 67.6368 369.102L68.9868 368.796C69.0828 369.372 69.2628 369.828 69.5268 370.164C69.7908 370.488 70.1148 370.722 70.4988 370.866C70.8948 370.998 71.3148 371.064 71.7588 371.064C72.4188 371.064 72.9408 370.932 73.3248 370.668C73.7088 370.404 73.9008 370.05 73.9008 369.606C73.9008 369.15 73.7148 368.832 73.3428 368.652C72.9828 368.46 72.4848 368.304 71.8488 368.184L71.1108 368.058C70.5468 367.962 70.0308 367.812 69.5628 367.608C69.0948 367.404 68.7228 367.128 68.4468 366.78C68.1708 366.432 68.0328 365.994 68.0328 365.466C68.0328 364.674 68.3388 364.056 68.9508 363.612C69.5628 363.168 70.3728 362.946 71.3808 362.946C72.3768 362.946 73.1808 363.174 73.7928 363.63C74.4168 364.074 74.8188 364.704 74.9988 365.52L73.6668 365.862C73.5588 365.226 73.3008 364.782 72.8928 364.53C72.4848 364.266 71.9808 364.134 71.3808 364.134C70.7808 364.134 70.3068 364.248 69.9588 364.476C69.6108 364.692 69.4368 365.016 69.4368 365.448C69.4368 365.868 69.5988 366.18 69.9228 366.384C70.2588 366.576 70.7028 366.72 71.2548 366.816L71.9928 366.942C72.6168 367.05 73.1748 367.2 73.6668 367.392C74.1708 367.572 74.5668 367.836 74.8548 368.184C75.1548 368.532 75.3048 368.988 75.3048 369.552C75.3048 370.416 74.9808 371.082 74.3328 371.55C73.6968 372.018 72.8388 372.252 71.7588 372.252ZM80.3346 372.252C79.7226 372.252 79.1646 372.144 78.6606 371.928C78.1566 371.712 77.7606 371.4 77.4726 370.992C77.1846 370.584 77.0406 370.086 77.0406 369.498C77.0406 368.898 77.1846 368.406 77.4726 368.022C77.7606 367.626 78.1566 367.332 78.6606 367.14C79.1646 366.936 79.7286 366.834 80.3526 366.834H83.3226V366.186C83.3226 365.562 83.1366 365.07 82.7646 364.71C82.4046 364.35 81.8646 364.17 81.1446 364.17C80.4366 364.17 79.8846 364.344 79.4886 364.692C79.0926 365.028 78.8226 365.484 78.6786 366.06L77.3466 365.628C77.4906 365.136 77.7186 364.692 78.0306 364.296C78.3426 363.888 78.7566 363.564 79.2726 363.324C79.8006 363.072 80.4306 362.946 81.1626 362.946C82.2906 362.946 83.1666 363.24 83.7906 363.828C84.4146 364.404 84.7266 365.22 84.7266 366.276V370.254C84.7266 370.614 84.8946 370.794 85.2306 370.794H86.0406V372H84.7986C84.4026 372 84.0846 371.892 83.8446 371.676C83.6046 371.448 83.4846 371.148 83.4846 370.776V370.686H83.2686C83.1366 370.914 82.9566 371.154 82.7286 371.406C82.5126 371.646 82.2126 371.844 81.8286 372C81.4446 372.168 80.9466 372.252 80.3346 372.252ZM80.4966 371.028C81.3366 371.028 82.0146 370.782 82.5306 370.29C83.0586 369.786 83.3226 369.084 83.3226 368.184V367.986H80.4066C79.8426 367.986 79.3746 368.112 79.0026 368.364C78.6426 368.604 78.4626 368.97 78.4626 369.462C78.4626 369.954 78.6486 370.338 79.0206 370.614C79.4046 370.89 79.8966 371.028 80.4966 371.028ZM87.31 367.644V367.392C87.31 366.468 87.496 365.676 87.868 365.016C88.24 364.356 88.744 363.846 89.38 363.486C90.016 363.126 90.712 362.946 91.468 362.946C92.392 362.946 93.1 363.126 93.592 363.486C94.096 363.834 94.468 364.224 94.708 364.656H94.96V363.198H96.31V374.052C96.31 374.532 96.178 374.91 95.914 375.186C95.65 375.462 95.266 375.6 94.762 375.6H88.786V374.34H94.384C94.744 374.34 94.924 374.16 94.924 373.8V370.452H94.672C94.528 370.716 94.324 370.974 94.06 371.226C93.796 371.478 93.454 371.688 93.034 371.856C92.614 372.012 92.092 372.09 91.468 372.09C90.712 372.09 90.016 371.91 89.38 371.55C88.744 371.19 88.24 370.68 87.868 370.02C87.496 369.348 87.31 368.556 87.31 367.644ZM91.846 370.83C92.758 370.83 93.496 370.542 94.06 369.966C94.636 369.39 94.924 368.598 94.924 367.59V367.446C94.924 366.426 94.636 365.634 94.06 365.07C93.496 364.494 92.758 364.206 91.846 364.206C90.946 364.206 90.202 364.494 89.614 365.07C89.038 365.634 88.75 366.426 88.75 367.446V367.59C88.75 368.598 89.038 369.39 89.614 369.966C90.202 370.542 90.946 370.83 91.846 370.83ZM103.323 372.252C102.435 372.252 101.655 372.066 100.983 371.694C100.311 371.31 99.7889 370.776 99.4169 370.092C99.0449 369.408 98.8589 368.616 98.8589 367.716V367.5C98.8589 366.588 99.0449 365.79 99.4169 365.106C99.7889 364.422 100.305 363.894 100.965 363.522C101.625 363.138 102.381 362.946 103.233 362.946C104.061 362.946 104.793 363.126 105.429 363.486C106.065 363.834 106.563 364.338 106.923 364.998C107.283 365.658 107.463 366.432 107.463 367.32V367.968H100.281C100.317 368.916 100.623 369.66 101.199 370.2C101.775 370.728 102.495 370.992 103.359 370.992C104.115 370.992 104.697 370.818 105.105 370.47C105.513 370.122 105.825 369.708 106.041 369.228L107.265 369.822C107.085 370.194 106.833 370.566 106.509 370.938C106.197 371.31 105.783 371.622 105.267 371.874C104.763 372.126 104.115 372.252 103.323 372.252ZM100.299 366.798H106.023C105.975 365.982 105.693 365.346 105.177 364.89C104.673 364.434 104.025 364.206 103.233 364.206C102.429 364.206 101.769 364.434 101.253 364.89C100.737 365.346 100.419 365.982 100.299 366.798Z" fill="#898989"/>
<rect x="1" y="566" width="556" height="68" rx="14" fill="#191A23"/>
<path d="M215.045 607.28C214.032 607.28 213.125 607.1 212.325 606.74C211.525 606.38 210.892 605.84 210.425 605.12C209.972 604.387 209.745 603.473 209.745 602.38V601.96H211.405V602.38C211.405 603.54 211.745 604.407 212.425 604.98C213.105 605.54 213.978 605.82 215.045 605.82C216.138 605.82 216.972 605.573 217.545 605.08C218.118 604.587 218.405 603.967 218.405 603.22C218.405 602.7 218.272 602.287 218.005 601.98C217.752 601.673 217.392 601.427 216.925 601.24C216.458 601.04 215.912 600.867 215.285 600.72L214.245 600.46C213.432 600.247 212.712 599.987 212.085 599.68C211.458 599.373 210.965 598.973 210.605 598.48C210.258 597.973 210.085 597.327 210.085 596.54C210.085 595.753 210.278 595.073 210.665 594.5C211.065 593.927 211.618 593.487 212.325 593.18C213.045 592.873 213.872 592.72 214.805 592.72C215.752 592.72 216.598 592.887 217.345 593.22C218.105 593.54 218.698 594.02 219.125 594.66C219.565 595.287 219.785 596.08 219.785 597.04V597.88H218.125V597.04C218.125 596.36 217.978 595.813 217.685 595.4C217.405 594.987 217.012 594.68 216.505 594.48C216.012 594.28 215.445 594.18 214.805 594.18C213.885 594.18 213.145 594.387 212.585 594.8C212.025 595.2 211.745 595.773 211.745 596.52C211.745 597.013 211.865 597.413 212.105 597.72C212.345 598.027 212.685 598.28 213.125 598.48C213.565 598.667 214.092 598.833 214.705 598.98L215.745 599.24C216.558 599.413 217.285 599.653 217.925 599.96C218.578 600.253 219.098 600.66 219.485 601.18C219.872 601.687 220.065 602.353 220.065 603.18C220.065 604.007 219.858 604.727 219.445 605.34C219.032 605.953 218.445 606.433 217.685 606.78C216.938 607.113 216.058 607.28 215.045 607.28ZM227.191 607.28C226.204 607.28 225.337 607.073 224.591 606.66C223.844 606.233 223.264 605.64 222.851 604.88C222.437 604.12 222.231 603.24 222.231 602.24V602C222.231 600.987 222.437 600.1 222.851 599.34C223.264 598.58 223.837 597.993 224.571 597.58C225.304 597.153 226.144 596.94 227.091 596.94C228.011 596.94 228.824 597.14 229.531 597.54C230.237 597.927 230.791 598.487 231.191 599.22C231.591 599.953 231.791 600.813 231.791 601.8V602.52H223.811C223.851 603.573 224.191 604.4 224.831 605C225.471 605.587 226.271 605.88 227.231 605.88C228.071 605.88 228.717 605.687 229.171 605.3C229.624 604.913 229.971 604.453 230.211 603.92L231.571 604.58C231.371 604.993 231.091 605.407 230.731 605.82C230.384 606.233 229.924 606.58 229.351 606.86C228.791 607.14 228.071 607.28 227.191 607.28ZM223.831 601.22H230.191C230.137 600.313 229.824 599.607 229.251 599.1C228.691 598.593 227.971 598.34 227.091 598.34C226.197 598.34 225.464 598.593 224.891 599.1C224.317 599.607 223.964 600.313 223.831 601.22ZM234.547 607V597.22H236.087V598.88H236.367C236.58 598.413 236.94 597.993 237.447 597.62C237.967 597.233 238.727 597.04 239.727 597.04C240.46 597.04 241.113 597.193 241.687 597.5C242.273 597.807 242.74 598.26 243.087 598.86C243.433 599.46 243.607 600.2 243.607 601.08V607H242.027V601.2C242.027 600.227 241.78 599.52 241.287 599.08C240.807 598.64 240.153 598.42 239.327 598.42C238.38 598.42 237.607 598.727 237.007 599.34C236.42 599.953 236.127 600.867 236.127 602.08V607H234.547ZM250.952 607.28C250.112 607.28 249.339 607.08 248.632 606.68C247.926 606.28 247.366 605.7 246.952 604.94C246.539 604.18 246.332 603.28 246.332 602.24V601.98C246.332 600.94 246.539 600.047 246.952 599.3C247.366 598.54 247.919 597.96 248.612 597.56C249.319 597.147 250.099 596.94 250.952 596.94C251.632 596.94 252.206 597.033 252.672 597.22C253.152 597.393 253.539 597.62 253.832 597.9C254.126 598.167 254.352 598.453 254.512 598.76H254.792V593H256.372V607H254.832V605.38H254.552C254.286 605.873 253.872 606.313 253.312 606.7C252.752 607.087 251.966 607.28 250.952 607.28ZM251.372 605.88C252.386 605.88 253.206 605.56 253.832 604.92C254.472 604.267 254.792 603.36 254.792 602.2V602.02C254.792 600.86 254.472 599.96 253.832 599.32C253.206 598.667 252.386 598.34 251.372 598.34C250.372 598.34 249.546 598.667 248.892 599.32C248.252 599.96 247.932 600.86 247.932 602.02V602.2C247.932 603.36 248.252 604.267 248.892 604.92C249.546 605.56 250.372 605.88 251.372 605.88ZM264.76 607V593H267.96L271.68 605.94H271.94L275.66 593H278.86V607H277.24V594.1H276.96L273.26 607H270.36L266.66 594.1H266.38V607H264.76ZM286.605 607.28C285.618 607.28 284.752 607.073 284.005 606.66C283.258 606.233 282.678 605.64 282.265 604.88C281.852 604.12 281.645 603.24 281.645 602.24V602C281.645 600.987 281.852 600.1 282.265 599.34C282.678 598.58 283.252 597.993 283.985 597.58C284.718 597.153 285.558 596.94 286.505 596.94C287.425 596.94 288.238 597.14 288.945 597.54C289.652 597.927 290.205 598.487 290.605 599.22C291.005 599.953 291.205 600.813 291.205 601.8V602.52H283.225C283.265 603.573 283.605 604.4 284.245 605C284.885 605.587 285.685 605.88 286.645 605.88C287.485 605.88 288.132 605.687 288.585 605.3C289.038 604.913 289.385 604.453 289.625 603.92L290.985 604.58C290.785 604.993 290.505 605.407 290.145 605.82C289.798 606.233 289.338 606.58 288.765 606.86C288.205 607.14 287.485 607.28 286.605 607.28ZM283.245 601.22H289.605C289.552 600.313 289.238 599.607 288.665 599.1C288.105 598.593 287.385 598.34 286.505 598.34C285.612 598.34 284.878 598.593 284.305 599.1C283.732 599.607 283.378 600.313 283.245 601.22ZM297.901 607.28C296.687 607.28 295.661 607 294.821 606.44C293.994 605.88 293.494 604.993 293.321 603.78L294.821 603.44C294.927 604.08 295.127 604.587 295.421 604.96C295.714 605.32 296.074 605.58 296.501 605.74C296.941 605.887 297.407 605.96 297.901 605.96C298.634 605.96 299.214 605.813 299.641 605.52C300.067 605.227 300.281 604.833 300.281 604.34C300.281 603.833 300.074 603.48 299.661 603.28C299.261 603.067 298.707 602.893 298.001 602.76L297.181 602.62C296.554 602.513 295.981 602.347 295.461 602.12C294.941 601.893 294.527 601.587 294.221 601.2C293.914 600.813 293.761 600.327 293.761 599.74C293.761 598.86 294.101 598.173 294.781 597.68C295.461 597.187 296.361 596.94 297.481 596.94C298.587 596.94 299.481 597.193 300.161 597.7C300.854 598.193 301.301 598.893 301.501 599.8L300.021 600.18C299.901 599.473 299.614 598.98 299.161 598.7C298.707 598.407 298.147 598.26 297.481 598.26C296.814 598.26 296.287 598.387 295.901 598.64C295.514 598.88 295.321 599.24 295.321 599.72C295.321 600.187 295.501 600.533 295.861 600.76C296.234 600.973 296.727 601.133 297.341 601.24L298.161 601.38C298.854 601.5 299.474 601.667 300.021 601.88C300.581 602.08 301.021 602.373 301.341 602.76C301.674 603.147 301.841 603.653 301.841 604.28C301.841 605.24 301.481 605.98 300.761 606.5C300.054 607.02 299.101 607.28 297.901 607.28ZM308.448 607.28C307.234 607.28 306.208 607 305.368 606.44C304.541 605.88 304.041 604.993 303.868 603.78L305.368 603.44C305.474 604.08 305.674 604.587 305.968 604.96C306.261 605.32 306.621 605.58 307.048 605.74C307.488 605.887 307.954 605.96 308.448 605.96C309.181 605.96 309.761 605.813 310.188 605.52C310.614 605.227 310.828 604.833 310.828 604.34C310.828 603.833 310.621 603.48 310.208 603.28C309.808 603.067 309.254 602.893 308.548 602.76L307.728 602.62C307.101 602.513 306.528 602.347 306.008 602.12C305.488 601.893 305.074 601.587 304.768 601.2C304.461 600.813 304.308 600.327 304.308 599.74C304.308 598.86 304.648 598.173 305.328 597.68C306.008 597.187 306.908 596.94 308.028 596.94C309.134 596.94 310.028 597.193 310.708 597.7C311.401 598.193 311.848 598.893 312.048 599.8L310.568 600.18C310.448 599.473 310.161 598.98 309.708 598.7C309.254 598.407 308.694 598.26 308.028 598.26C307.361 598.26 306.834 598.387 306.448 598.64C306.061 598.88 305.868 599.24 305.868 599.72C305.868 600.187 306.048 600.533 306.408 600.76C306.781 600.973 307.274 601.133 307.888 601.24L308.708 601.38C309.401 601.5 310.021 601.667 310.568 601.88C311.128 602.08 311.568 602.373 311.888 602.76C312.221 603.147 312.388 603.653 312.388 604.28C312.388 605.24 312.028 605.98 311.308 606.5C310.601 607.02 309.648 607.28 308.448 607.28ZM317.976 607.28C317.296 607.28 316.676 607.16 316.116 606.92C315.556 606.68 315.116 606.333 314.796 605.88C314.476 605.427 314.316 604.873 314.316 604.22C314.316 603.553 314.476 603.007 314.796 602.58C315.116 602.14 315.556 601.813 316.116 601.6C316.676 601.373 317.303 601.26 317.996 601.26H321.296V600.54C321.296 599.847 321.09 599.3 320.676 598.9C320.276 598.5 319.676 598.3 318.876 598.3C318.09 598.3 317.476 598.493 317.036 598.88C316.596 599.253 316.296 599.76 316.136 600.4L314.656 599.92C314.816 599.373 315.07 598.88 315.416 598.44C315.763 597.987 316.223 597.627 316.796 597.36C317.383 597.08 318.083 596.94 318.896 596.94C320.15 596.94 321.123 597.267 321.816 597.92C322.51 598.56 322.856 599.467 322.856 600.64V605.06C322.856 605.46 323.043 605.66 323.416 605.66H324.316V607H322.936C322.496 607 322.143 606.88 321.876 606.64C321.61 606.387 321.476 606.053 321.476 605.64V605.54H321.236C321.09 605.793 320.89 606.06 320.636 606.34C320.396 606.607 320.063 606.827 319.636 607C319.21 607.187 318.656 607.28 317.976 607.28ZM318.156 605.92C319.09 605.92 319.843 605.647 320.416 605.1C321.003 604.54 321.296 603.76 321.296 602.76V602.54H318.056C317.43 602.54 316.91 602.68 316.496 602.96C316.096 603.227 315.896 603.633 315.896 604.18C315.896 604.727 316.103 605.153 316.516 605.46C316.943 605.767 317.49 605.92 318.156 605.92ZM325.727 602.16V601.88C325.727 600.853 325.934 599.973 326.347 599.24C326.76 598.507 327.32 597.94 328.027 597.54C328.734 597.14 329.507 596.94 330.347 596.94C331.374 596.94 332.16 597.14 332.707 597.54C333.267 597.927 333.68 598.36 333.947 598.84H334.227V597.22H335.727V609.28C335.727 609.813 335.58 610.233 335.287 610.54C334.994 610.847 334.567 611 334.007 611H327.367V609.6H333.587C333.987 609.6 334.187 609.4 334.187 609V605.28H333.907C333.747 605.573 333.52 605.86 333.227 606.14C332.934 606.42 332.554 606.653 332.087 606.84C331.62 607.013 331.04 607.1 330.347 607.1C329.507 607.1 328.734 606.9 328.027 606.5C327.32 606.1 326.76 605.533 326.347 604.8C325.934 604.053 325.727 603.173 325.727 602.16ZM330.767 605.7C331.78 605.7 332.6 605.38 333.227 604.74C333.867 604.1 334.187 603.22 334.187 602.1V601.94C334.187 600.807 333.867 599.927 333.227 599.3C332.6 598.66 331.78 598.34 330.767 598.34C329.767 598.34 328.94 598.66 328.287 599.3C327.647 599.927 327.327 600.807 327.327 601.94V602.1C327.327 603.22 327.647 604.1 328.287 604.74C328.94 605.38 329.767 605.7 330.767 605.7ZM343.519 607.28C342.532 607.28 341.666 607.073 340.919 606.66C340.172 606.233 339.592 605.64 339.179 604.88C338.766 604.12 338.559 603.24 338.559 602.24V602C338.559 600.987 338.766 600.1 339.179 599.34C339.592 598.58 340.166 597.993 340.899 597.58C341.632 597.153 342.472 596.94 343.419 596.94C344.339 596.94 345.152 597.14 345.859 597.54C346.566 597.927 347.119 598.487 347.519 599.22C347.919 599.953 348.119 600.813 348.119 601.8V602.52H340.139C340.179 603.573 340.519 604.4 341.159 605C341.799 605.587 342.599 605.88 343.559 605.88C344.399 605.88 345.046 605.687 345.499 605.3C345.952 604.913 346.299 604.453 346.539 603.92L347.899 604.58C347.699 604.993 347.419 605.407 347.059 605.82C346.712 606.233 346.252 606.58 345.679 606.86C345.119 607.14 344.399 607.28 343.519 607.28ZM340.159 601.22H346.519C346.466 600.313 346.152 599.607 345.579 599.1C345.019 598.593 344.299 598.34 343.419 598.34C342.526 598.34 341.792 598.593 341.219 599.1C340.646 599.607 340.292 600.313 340.159 601.22Z" fill="white"/>
</svg>
